<svg width="144" height="26" viewBox="0 0 144 26" fill="none" xmlns="http://www.w3.org/2000/svg">
<path d="M67.5675 15.056L64.0792 6.953L60.6091 15.056L60.3669 15.607H67.7916L67.5675 15.056ZM66.4169 0.975712L76.9725 24.9999H71.8249L69.6508 19.9734H58.544L58.3866 20.3186L56.3457 24.9999H51.3374L61.996 0.836426H66.2776L66.4169 0.975712ZM100.664 17.4784L95.1708 0.842478H91.1617L85.6689 17.4784L80.3457 0.842478H75.1315L83.5614 25.006H87.6129L93.1057 9.13317L98.5985 25.006H102.692L111.104 0.842478H106.011L100.664 17.4784ZM119.904 14.626H128.836V10.2111H119.904V5.24521H132.857V0.860646H115.071V25.006H133.33V20.6033H119.904V14.6078V14.626ZM139.162 0.860646V24.9878H144.007V0.842478L139.162 0.860646ZM16.3215 10.5805H5.25108V0.842478H0.345703V25.0241H5.25108V15.1952H16.3215V25.0241H21.2269V0.842478H16.3215V10.5866V10.5805ZM43.9551 0.836426H48.8544V14.4806C48.8544 21.4087 45.0391 25.3815 38.3896 25.3815C31.7401 25.3815 28.0278 21.4753 28.0278 14.6744V0.854593H32.9331V14.517C32.9331 18.5563 34.9195 20.7183 38.4623 20.7183C42.0051 20.7183 43.9551 18.6108 43.9551 14.6623V0.842478V0.836426Z" fill="white"/>
</svg>
