<svg width="189" height="31" viewBox="0 0 189 31" fill="none" xmlns="http://www.w3.org/2000/svg">
<path fill-rule="evenodd" clip-rule="evenodd" d="M185.894 1.93278V7.52853C182.995 6.43413 180.414 5.88078 178.155 5.88078C176.817 5.88078 175.752 6.12856 174.951 6.6076C174.149 7.09076 173.74 7.68548 173.74 8.38753C173.74 9.32084 174.645 10.1509 176.466 10.8943L181.727 13.4547C185.981 15.4824 188.091 18.1749 188.091 21.5572C188.091 24.3695 186.972 26.612 184.713 28.2721C182.471 29.9488 179.452 30.7789 175.694 30.7789C173.959 30.7789 172.403 30.7046 171.019 30.5476C169.636 30.399 168.046 30.0933 166.282 29.6556V23.7997C169.516 24.8941 172.46 25.4474 175.112 25.4474C178.275 25.4474 179.848 24.5306 179.848 22.6805C179.848 21.7596 179.204 21.0162 177.895 20.4339L172.051 17.9437C169.896 16.9691 168.293 15.788 167.244 14.388C166.212 12.9757 165.688 11.3568 165.688 9.5067C165.688 6.91729 166.778 4.83179 168.933 3.24597C171.106 1.67253 173.988 0.883789 177.573 0.883789C178.737 0.883789 180.08 0.98699 181.566 1.17697C183.065 1.37934 184.507 1.62712 185.894 1.93278Z" fill="white"/>
<path fill-rule="evenodd" clip-rule="evenodd" d="M20.3916 1.93278V7.52853C17.4925 6.43413 14.9156 5.88078 12.6566 5.88078C11.3145 5.88078 10.2532 6.12856 9.45195 6.6076C8.65084 7.09076 8.24197 7.68548 8.24197 8.38753C8.24197 9.32084 9.15877 10.1509 10.98 10.8943L16.2413 13.4547C20.4783 15.4824 22.5928 18.1749 22.5928 21.5572C22.5928 24.3695 21.4695 26.612 19.2271 28.2721C16.9681 29.9488 13.9658 30.7789 10.1954 30.7789C8.46085 30.7789 6.89979 30.7046 5.51634 30.5476C4.13288 30.399 2.55944 30.0933 0.78373 29.6556V23.7997C4.02968 24.8941 6.97419 25.4474 9.60891 25.4474C12.7723 25.4474 14.3457 24.5306 14.3457 22.6805C14.3457 21.7596 13.7056 21.0162 12.4088 20.4339L6.56533 17.9437C4.39304 16.9691 2.79071 15.788 1.75832 14.388C0.70933 12.9757 0.197266 11.3568 0.197266 9.5067C0.197266 6.91729 1.27928 4.83179 3.44735 3.24597C5.60312 1.67253 8.48975 0.883789 12.0744 0.883789C13.2513 0.883789 14.577 0.98699 16.0802 1.17697C17.5669 1.37934 19.0082 1.62712 20.3916 1.93278Z" fill="white"/>
<path fill-rule="evenodd" clip-rule="evenodd" d="M26.4219 1.4082H34.9911V30.2544H26.4219V1.4082Z" fill="white"/>
<path fill-rule="evenodd" clip-rule="evenodd" d="M62.5981 1.4082V6.73976H49.8661V13.1366H60.9091V17.9436H49.8661V24.6586H62.8583V30.2544H41.6191V1.4082H62.5981Z" fill="white"/>
<path fill-rule="evenodd" clip-rule="evenodd" d="M102.601 1.4082V30.2544H94.6016V11.2287L86.3014 30.5187H81.3623L73.3795 11.2287V30.2544H67.5938V1.4082H78.0543L85.1946 19.0669L92.6653 1.4082H102.601Z" fill="white"/>
<path fill-rule="evenodd" clip-rule="evenodd" d="M130.198 1.4082V6.73976H117.535V13.1366H128.578V17.9436H117.535V24.6586H130.458V30.2544H109.219V1.4082H130.198Z" fill="white"/>
<path fill-rule="evenodd" clip-rule="evenodd" d="M160.265 1.4082V30.2544H151.175L140.975 11.7532V30.2544H135.193V1.4082H144.548L154.484 19.5915V1.4082H160.265Z" fill="white"/>
</svg>
